<svg width="510" height="507" viewBox="0 0 510 507" fill="none" xmlns="http://www.w3.org/2000/svg">
<path d="M254.88 506.88C395.646 506.88 509.76 393.411 509.76 253.44C509.76 113.469 395.646 0 254.88 0C114.114 0 0 113.469 0 253.44C0 393.411 114.114 506.88 254.88 506.88Z" fill="#163300"/>
<path d="M254.88 306.24C331.128 306.24 392.94 249.506 392.94 179.52C392.94 109.535 331.128 52.8 254.88 52.8C178.632 52.8 116.82 109.535 116.82 179.52C116.82 249.506 178.632 306.24 254.88 306.24Z" fill="#9EE86F"/>
<path d="M169.92 147.84C193.381 147.84 212.4 128.928 212.4 105.6C212.4 82.2714 193.381 63.3599 169.92 63.3599C146.459 63.3599 127.44 82.2714 127.44 105.6C127.44 128.928 146.459 147.84 169.92 147.84Z" fill="#9EE86F"/>
<path d="M212.4 121.44C238.794 121.44 260.19 100.164 260.19 73.9199C260.19 47.6753 238.794 26.3999 212.4 26.3999C186.006 26.3999 164.61 47.6753 164.61 73.9199C164.61 100.164 186.006 121.44 212.4 121.44Z" fill="#9EE86F"/>
<path d="M265.5 108.24C293.36 108.24 315.945 85.7825 315.945 58.0799C315.945 30.3773 293.36 7.91992 265.5 7.91992C237.64 7.91992 215.055 30.3773 215.055 58.0799C215.055 85.7825 237.64 108.24 265.5 108.24Z" fill="#9EE86F"/>
<path d="M318.6 121.44C344.994 121.44 366.39 100.164 366.39 73.9199C366.39 47.6753 344.994 26.3999 318.6 26.3999C292.206 26.3999 270.81 47.6753 270.81 73.9199C270.81 100.164 292.206 121.44 318.6 121.44Z" fill="#9EE86F"/>
<path d="M361.08 147.84C384.541 147.84 403.56 128.928 403.56 105.6C403.56 82.2714 384.541 63.3599 361.08 63.3599C337.619 63.3599 318.6 82.2714 318.6 105.6C318.6 128.928 337.619 147.84 361.08 147.84Z" fill="#9EE86F"/>
<path d="M138.06 184.8C158.588 184.8 175.23 168.252 175.23 147.84C175.23 127.427 158.588 110.88 138.06 110.88C117.532 110.88 100.89 127.427 100.89 147.84C100.89 168.252 117.532 184.8 138.06 184.8Z" fill="#9EE86F"/>
<path d="M371.7 184.8C392.228 184.8 408.87 168.252 408.87 147.84C408.87 127.427 392.228 110.88 371.7 110.88C351.172 110.88 334.53 127.427 334.53 147.84C334.53 168.252 351.172 184.8 371.7 184.8Z" fill="#9EE86F"/>
<path d="M254.88 327.36C295.937 327.36 329.22 289.537 329.22 242.88C329.22 196.223 295.937 158.4 254.88 158.4C213.823 158.4 180.54 196.223 180.54 242.88C180.54 289.537 213.823 327.36 254.88 327.36Z" fill="#C8884A"/>
<path d="M270.81 306.24H238.95C230.152 306.24 223.02 313.332 223.02 322.08V332.64C223.02 341.388 230.152 348.48 238.95 348.48H270.81C279.608 348.48 286.74 341.388 286.74 332.64V322.08C286.74 313.332 279.608 306.24 270.81 306.24Z" fill="#C8884A"/>
<path d="M254.88 443.52C313.533 443.52 361.08 419.881 361.08 390.72C361.08 361.559 313.533 337.92 254.88 337.92C196.227 337.92 148.68 361.559 148.68 390.72C148.68 419.881 196.227 443.52 254.88 443.52Z" fill="#163300"/>
<path d="M318.6 359.04H191.16C167.699 359.04 148.68 377.952 148.68 401.28C148.68 424.609 167.699 443.52 191.16 443.52H318.6C342.061 443.52 361.08 424.609 361.08 401.28C361.08 377.952 342.061 359.04 318.6 359.04Z" fill="white"/>
<path d="M191.16 411.84C208.86 383.68 230.1 373.12 254.88 380.16C279.66 387.2 300.9 376.64 318.6 348.48" stroke="#9EE86F" stroke-width="2.5" stroke-linecap="round" stroke-linejoin="round"/>
<path d="M318.6 348.48L297.36 359.04L329.22 374.88L318.6 348.48Z" fill="#9EE86F"/>
<path d="M223.02 245.52C230.352 245.52 236.295 239.61 236.295 232.32C236.295 225.03 230.352 219.12 223.02 219.12C215.688 219.12 209.745 225.03 209.745 232.32C209.745 239.61 215.688 245.52 223.02 245.52Z" fill="#163300"/>
<path d="M286.74 245.52C294.072 245.52 300.015 239.61 300.015 232.32C300.015 225.03 294.072 219.12 286.74 219.12C279.408 219.12 273.465 225.03 273.465 232.32C273.465 239.61 279.408 245.52 286.74 245.52Z" fill="#163300"/>
<path d="M228.33 231.264C230.676 231.264 232.578 229.373 232.578 227.04C232.578 224.707 230.676 222.816 228.33 222.816C225.984 222.816 224.082 224.707 224.082 227.04C224.082 229.373 225.984 231.264 228.33 231.264Z" fill="#9EE86F"/>
<path d="M292.05 231.264C294.396 231.264 296.298 229.373 296.298 227.04C296.298 224.707 294.396 222.816 292.05 222.816C289.704 222.816 287.802 224.707 287.802 227.04C287.802 229.373 289.704 231.264 292.05 231.264Z" fill="#9EE86F"/>
<path d="M228.33 274.56C246.03 288.64 263.73 288.64 281.43 274.56" stroke="#163300" stroke-width="1.5" stroke-linecap="round"/>
<path d="M244.26 253.44C251.34 264 258.42 264 265.5 253.44" stroke="#A0703A" stroke-width="1.2" stroke-linecap="round"/>
<path d="M180.54 266.64C187.872 266.64 193.815 260.73 193.815 253.44C193.815 246.15 187.872 240.24 180.54 240.24C173.208 240.24 167.265 246.15 167.265 253.44C167.265 260.73 173.208 266.64 180.54 266.64Z" fill="#163300"/>
<path d="M180.54 261.36C184.939 261.36 188.505 257.814 188.505 253.44C188.505 249.066 184.939 245.52 180.54 245.52C176.141 245.52 172.575 249.066 172.575 253.44C172.575 257.814 176.141 261.36 180.54 261.36Z" fill="#9EE86F"/>
<path d="M329.22 266.64C336.552 266.64 342.495 260.73 342.495 253.44C342.495 246.15 336.552 240.24 329.22 240.24C321.888 240.24 315.945 246.15 315.945 253.44C315.945 260.73 321.888 266.64 329.22 266.64Z" fill="#163300"/>
<path d="M329.22 261.36C333.619 261.36 337.185 257.814 337.185 253.44C337.185 249.066 333.619 245.52 329.22 245.52C324.821 245.52 321.255 249.066 321.255 253.44C321.255 257.814 324.821 261.36 329.22 261.36Z" fill="#9EE86F"/>
</svg>
